<?xml version="1.0" encoding="UTF-8"?>
<svg id="Calque_2" data-name="Calque 2" xmlns="http://www.w3.org/2000/svg" viewBox="0 0 799.5 800">
  <defs>
    <style>
      .cls-1 {
        fill: #000;
        fill-rule: evenodd;
        stroke-width: 0px;
      }
    </style>
  </defs>
  <g id="Calque_1-2" data-name="Calque 1">
    <path class="cls-1" d="M306.41,140.04c90.93,0,164.99,74.01,164.99,164.99v47.14c0,50.82-23.57,95.74-59.82,126.05,39.22,5.8,78.06,14.57,115.96,26.92,51.01,16.59,85.28,64.87,85.28,120.07v83.49l-11.17,6.93c-61.85,38.47-163.34,84.38-295.24,84.38-72.83,0-183.23-14.66-295.29-84.38l-11.13-6.93v-78.91c0-58.6,37.19-109.6,92.49-127,35.59-11.12,71.89-19.37,108.47-24.8-36.06-30.31-59.54-75.14-59.54-125.82v-47.14c0-90.98,74.01-164.99,164.99-164.99ZM493.09,0c90.93,0,164.99,74.01,164.99,164.99v47.14c0,50.82-23.57,95.79-59.82,126.05,39.22,5.8,78.02,14.61,115.97,26.92,51.01,16.69,85.28,64.91,85.28,120.11v83.49l-11.12,6.93c-32.34,20.13-75.75,42.1-128.41,58.64v-9.05c0-75.71-47.33-141.99-117.8-164.9-15.34-5-30.84-9.48-46.48-13.44,14.9-29.09,22.86-61.42,22.86-94.7v-47.14c0-104.37-75.85-190.82-175.17-208.41C369.48,39.79,426.52,0,493.09,0h0Z"/>
  </g>
</svg>