<?xml version="1.0" encoding="UTF-8"?>
<svg xmlns="http://www.w3.org/2000/svg" viewBox="0 0 603.19 439.75">
    <path d="m602.81,154.02c0,7.44-.52,14.79-1.55,21.95-1.04,7.29-2.59,14.42-4.63,21.34l-.37.61.12.18c-2.23,7.53-5.03,14.79-8.35,21.77-4.24,8.96-9.33,17.41-15.15,25.3-3.78,5.12-7.9,10.06-12.35,14.66l-.06.06c-.49.55-1.01,1.1-1.55,1.65-.73.76-1.46,1.49-2.23,2.23-4.97,4.91-10.3,9.45-15.91,13.63-8.02,5.98-16.65,11.16-25.76,15.49-4.18,1.98-8.48,3.81-12.87,5.4-5.7,2.1-11.55,3.87-17.56,5.27-4.42,1.07-8.9,1.92-13.47,2.56-4.73.67-9.51,1.13-14.36,1.34-2.5.15-5.03.21-7.59.21h-21.95v-87.8h21.95c2.53,0,5-.15,7.47-.43,5.03-.55,9.88-1.71,14.48-3.35,7.23-2.53,13.87-6.31,19.69-11.07,0,0,0-.03.03-.03,1.86-1.52,3.66-3.14,5.3-4.88,6.68-6.77,11.89-15,15.09-24.14,1.31-3.66,2.32-7.5,2.93-11.43.58-3.41.85-6.95.85-10.52s-.27-7.1-.85-10.52c-.61-3.93-1.62-7.77-2.93-11.43-3.2-9.15-8.41-17.38-15.06-24.14-1.71-1.77-3.51-3.38-5.4-4.91-5.82-4.76-12.44-8.54-19.66-11.07-4.6-1.65-9.45-2.8-14.48-3.35-2.47-.27-4.94-.43-7.47-.43h-245.75c-33.4,57.78-68.03,117.81-101.4,175.6h-25.33l-.67-1.16v1.16H.65C50.84,176.78,102.49,87.38,152.71.38h296.45c2.56,0,5.09.06,7.59.21,4.85.21,9.63.67,14.36,1.34,4.57.64,9.05,1.49,13.47,2.56,6.01,1.4,11.86,3.17,17.56,5.27,4.39,1.59,8.69,3.41,12.87,5.4,9.12,4.33,17.74,9.51,25.76,15.49,5.61,4.18,10.94,8.72,15.91,13.63.76.73,1.49,1.46,2.23,2.23,5.03,5.12,9.69,10.58,13.96,16.37,5.82,7.9,10.91,16.34,15.15,25.3,3.32,6.98,6.13,14.24,8.35,21.77,2.16,7.16,3.78,14.57,4.88,22.13,1.04,7.16,1.55,14.51,1.55,21.95Z"/>
    <path d="m507.57,351.57c-14.5,25.07-36.39,63.03-50.7,87.8h-161.36v-219.5h-117.46c16.1-27.84,34.62-59.98,50.7-87.8h154.56v219.5h124.26Z"/>
</svg>