<?xml version="1.0" encoding="UTF-8"?>
<svg id="Calque_1" data-name="Calque 1" xmlns="http://www.w3.org/2000/svg" viewBox="0 0 800 800">
  <path class="cls-1" d="m400,66.67c-62.52,0-115.04,3.31-158.33,12.93-43.67,9.71-79.96,26.27-107.88,54.19-27.92,27.92-44.49,64.21-54.19,107.88-9.62,43.29-12.93,95.81-12.93,158.33s3.31,115.04,12.93,158.33c9.71,43.67,26.27,79.96,54.19,107.88,27.92,27.92,64.21,44.49,107.88,54.19,43.29,9.62,95.81,12.93,158.33,12.93s115.04-3.31,158.33-12.93c43.67-9.71,79.96-26.27,107.88-54.19,27.92-27.92,44.49-64.21,54.19-107.88,9.62-43.29,12.93-95.81,12.93-158.33s-3.31-115.04-12.93-158.33c-9.71-43.67-26.27-79.96-54.19-107.88-27.92-27.92-64.21-44.49-107.88-54.19-43.29-9.62-95.81-12.93-158.33-12.93Zm-66.67,133.33c18.41,0,33.33,14.92,33.33,33.33v16.67h33.33v-16.67c0-18.41,14.92-33.33,33.33-33.33s33.33,14.92,33.33,33.33v17.86c21.86,3.22,40.48,12.82,54.35,27.38,16.85,17.7,24.82,40.76,24.82,63.09,0,20.38-6.63,41.37-20.6,58.33,13.97,16.96,20.6,37.95,20.6,58.33,0,22.34-7.97,45.4-24.82,63.09-13.87,14.56-32.48,24.16-54.35,27.38v17.86c0,18.41-14.92,33.33-33.33,33.33s-33.33-14.92-33.33-33.33v-16.67h-33.33v16.67c0,18.41-14.92,33.33-33.33,33.33s-33.33-14.92-33.33-33.33v-16.67h-33.33c-18.41,0-33.33-14.92-33.33-33.33s14.92-33.33,33.33-33.33h33.33v-166.67h-33.33c-18.41,0-33.33-14.92-33.33-33.33s14.92-33.33,33.33-33.33h33.33v-16.67c0-18.41,14.92-33.33,33.33-33.33Z"/>
  <path class="cls-1" d="m366.67,366.67v-50h83.33c12.56,0,19.17,4.14,22.74,7.88,3.98,4.18,6.43,10.29,6.43,17.12s-2.45,12.94-6.43,17.12c-3.56,3.74-10.18,7.88-22.74,7.88h-83.33Z"/>
  <path class="cls-1" d="m450,483.33c12.56,0,19.17-4.14,22.74-7.88,3.98-4.18,6.43-10.29,6.43-17.12s-2.45-12.94-6.43-17.12c-3.56-3.74-10.18-7.88-22.74-7.88h-83.33v50h83.33Z"/>
</svg>