<?xml version="1.0" encoding="UTF-8"?>
<svg id="Calque_2" data-name="Calque 2" xmlns="http://www.w3.org/2000/svg" viewBox="0 0 266.67 333.33">
  <defs>
    <style>
      .cls-1 {
        fill: #0caa60;
        stroke-width: 0px;
      }
    </style>
  </defs>
  <g id="Calque_1-2" data-name="Calque 1">
    <path class="cls-1" d="M256.9,109.76L159.82,12.68c-.51-.51-1.03-1-1.56-1.47-6.11-6.87-15.01-11.21-24.92-11.21s-18.81,4.33-24.92,11.2c-.53.47-1.05.96-1.55,1.46L9.76,109.76c-13.02,13.02-13.02,34.12,0,47.14,13.02,13.02,34.12,13.02,47.14,0l43.1-43.1v186.19c0,18.41,14.92,33.33,33.33,33.33s33.33-14.92,33.33-33.33V113.81l43.1,43.1c6.51,6.51,15.04,9.76,23.57,9.76s17.06-3.25,23.57-9.76c13.02-13.02,13.02-34.12,0-47.14Z"/>
  </g>
</svg>