<?xml version="1.0" encoding="UTF-8"?>
<svg xmlns="http://www.w3.org/2000/svg" viewBox="0 0 600 716.67">
    <path d="m150,108.33h-8.33V25c0-13.67-11.33-25-25-25s-25,11.33-25,25v83.33h-8.33C30.33,108.33,0,138.67,0,191.67v200c0,53,30.33,83.33,83.33,83.33h8.33v216.67c0,13.67,11.33,25,25,25s25-11.33,25-25v-216.67h8.33c53,0,83.33-30.33,83.33-83.33v-200c0-53-30.33-83.33-83.33-83.33Z"/>
    <path d="m516.67,241.67h-8.33V25c0-13.67-11.33-25-25-25s-25,11.33-25,25v216.67h-8.33c-53,0-83.33,30.33-83.33,83.33v200c0,53,30.33,83.33,83.33,83.33h8.33v83.33c0,13.67,11.33,25,25,25s25-11.33,25-25v-83.33h8.33c53,0,83.33-30.33,83.33-83.33v-200c0-53-30.33-83.33-83.33-83.33Z"/>
</svg>