<?xml version="1.0" encoding="UTF-8"?>
<svg id="Calque_2" data-name="Calque 2" xmlns="http://www.w3.org/2000/svg" viewBox="0 0 600 666.67">
  <path d="m600,166.67c0-56.25-44.73-98.19-96.53-124.09C449.67,15.67,377.69,0,300,0S150.33,15.67,96.53,42.57C44.73,68.47,0,110.42,0,166.67v333.33c0,56.25,44.73,98.19,96.53,124.1,53.79,26.9,125.78,42.57,203.47,42.57s149.67-15.67,203.47-42.57c51.8-25.9,96.53-67.85,96.53-124.1V166.67ZM71,405.1c9.07-16.02,29.42-21.65,45.43-12.57,42.68,24.18,108.17,40.81,183.57,40.81s140.89-16.63,183.57-40.81c16.02-9.07,36.36-3.44,45.43,12.57,9.07,16.02,3.45,36.36-12.57,45.43-55.04,31.18-132.54,49.47-216.43,49.47s-161.39-18.29-216.43-49.47c-16.02-9.08-21.65-29.42-12.57-45.43Zm45.43-179.24c-16.02-9.07-36.36-3.45-45.43,12.57-9.07,16.02-3.45,36.36,12.57,45.43,55.04,31.18,132.54,49.47,216.43,49.47s161.39-18.29,216.43-49.47c16.02-9.07,21.65-29.42,12.57-45.43-9.07-16.02-29.41-21.65-45.43-12.57-42.68,24.18-108.17,40.81-183.57,40.81s-140.89-16.63-183.57-40.81Z"/>
</svg>