<?xml version="1.0" encoding="UTF-8"?>
<svg id="Calque_2" data-name="Calque 2" xmlns="http://www.w3.org/2000/svg" viewBox="0 0 676.92 305.87">
  <defs>
    <style>
      .cls-1 {
        fill: #fff;
      }
    </style>
  </defs>
  <g id="Calque_1-2" data-name="Calque 1">
    <g>
      <path class="cls-1" d="M123.08,60.63c-1.55-80.84-121.52-80.85-123.08,0,1.55,80.83,121.52,80.85,123.08,0Z"/>
      <path class="cls-1" d="M369.23,245.24c1.55,80.83,121.52,80.85,123.08,0-1.55-80.84-121.52-80.85-123.08,0Z"/>
      <path class="cls-1" d="M553.85,245.24c1.55,80.83,121.52,80.85,123.08,0-1.55-80.84-121.52-80.85-123.08,0Z"/>
      <path class="cls-1" d="M184.62,245.24c1.55,80.83,121.52,80.85,123.08,0-1.55-80.84-121.52-80.85-123.08,0Z"/>
      <path class="cls-1" d="M369.23,60.63c1.55,80.83,121.52,80.85,123.08,0-1.55-80.84-121.52-80.85-123.08,0Z"/>
      <path class="cls-1" d="M0,245.24c1.55,80.83,121.52,80.85,123.08,0-1.55-80.84-121.52-80.85-123.08,0Z"/>
      <path class="cls-1" d="M184.62,60.63c1.55,80.83,121.52,80.85,123.08,0-1.55-80.84-121.52-80.85-123.08,0Z"/>
      <path class="cls-1" d="M553.85,60.63c1.55,80.83,121.52,80.85,123.08,0-1.55-80.84-121.52-80.85-123.08,0Z"/>
    </g>
  </g>
</svg>