<?xml version="1.0" encoding="UTF-8"?>
<svg id="Calque_2" data-name="Calque 2" xmlns="http://www.w3.org/2000/svg" viewBox="0 0 81.71 79.09">
  <defs>
    <style>
      .cls-1 {
        fill: rgba(0, 0, 0, 0.9);
        stroke-width: 0px;
      }
    </style>
  </defs>
  <g id="Calque_1-2" data-name="Calque 1">
    <path class="cls-1" d="M61.13,37.42c-11.4,0-20.58,9.35-20.58,20.75s9.18,20.58,20.58,20.58,20.58-9.35,20.58-20.58-9.18-20.75-20.58-20.75ZM75.59,60.21h-14.97v-15.82s5.61-.34,10.72,4.93,4.25,10.89,4.25,10.89Z"/>
    <path class="cls-1" d="M34.43,58.34c0-4.59,1.53-10.03,3.91-14.12,2.89-5.1,6.12-7.14,8.67-11.06,4.25-6.29,5.1-15.48,2.38-22.28C46.68,3.92,40.21-.16,32.56,0c-7.48.17-13.78,4.76-16.16,11.91-2.72,7.65-1.53,17.01,4.59,22.79,2.55,2.38,4.93,6.12,3.57,9.86-1.19,3.4-5.27,4.93-8.16,6.29-6.63,2.89-14.8,6.97-16.16,14.97-1.36,6.46,3.06,13.27,10.03,13.27h29.08c1.36,0,2.21-1.7,1.36-2.72-3.91-5.1-6.29-11.4-6.29-18.03Z"/>
  </g>
</svg>