<?xml version="1.0" encoding="UTF-8"?>
<svg id="Calque_2" data-name="Calque 2" xmlns="http://www.w3.org/2000/svg" viewBox="0 0 94.1 94.1">
  <defs>
    <style>
      .cls-1, .cls-2 {
        fill: rgba(0, 0, 0, 0.9);
        stroke-width: 0px;
      }

      .cls-2 {
        fill-rule: evenodd;
      }
    </style>
  </defs>
  <g id="Calque_1-2" data-name="Calque 1">
    <g id="Page-1">
      <g id="Dribbble-Light-Preview">
        <g id="icons">
          <path id="calendar-_1196_" data-name="calendar-[#1196]" class="cls-2" d="M84.69,79.99c0,2.6-2.11,4.71-4.71,4.71H14.12c-2.6,0-4.71-2.11-4.71-4.71v-47.05c0-2.6,2.11-4.71,4.71-4.71h65.87c2.6,0,4.71,2.11,4.71,4.71v47.05ZM84.69,9.41v-4.71c0-2.6-2.11-4.71-4.71-4.71s-4.71,2.11-4.71,4.71v4.71h-23.53v-4.71c0-2.6-2.11-4.71-4.71-4.71s-4.71,2.11-4.71,4.71v4.71h-23.53v-4.71c0-2.6-2.11-4.71-4.71-4.71s-4.71,2.11-4.71,4.71v4.71C4.21,9.41,0,13.62,0,18.82v65.87c0,5.19,4.21,9.41,9.41,9.41h75.28c5.2,0,9.41-4.22,9.41-9.41V18.82c0-5.2-4.21-9.41-9.41-9.41h0Z"/>
        </g>
      </g>
    </g>
    <g>
      <path class="cls-1" d="M29.01,64.28c1.17.64,3.83,1.72,6.51,1.72,3.4,0,5.11-1.63,5.11-3.7,0-2.79-2.76-4.04-5.63-4.04h-2.67v-4.69h2.57c2.2,0,4.95-.86,4.95-3.23,0-1.68-1.34-2.93-4.13-2.93-2.28,0-4.68.99-5.81,1.68l-1.33-4.73c1.69-1.08,4.99-2.11,8.66-2.11,5.94,0,9.24,3.14,9.24,6.96,0,2.97-1.67,5.34-5.12,6.5v.09c3.36.6,6.07,3.14,6.07,6.84,0,4.9-4.34,8.52-11.45,8.52-3.62,0-6.67-.94-8.3-1.94l1.33-4.94Z"/>
      <polygon class="cls-1" points="60.09 48.53 60.01 48.53 54.68 51.07 53.6 46.16 61.04 42.72 66.42 42.72 66.42 70.69 60.09 70.69 60.09 48.53"/>
    </g>
  </g>
</svg>