<?xml version="1.0" encoding="UTF-8"?>
<svg id="Calque_2" data-name="Calque 2" xmlns="http://www.w3.org/2000/svg" viewBox="0 0 94.1 94.1">
  <defs>
    <style>
      .cls-1, .cls-2 {
        fill: rgba(0, 0, 0, 0.9);
        stroke-width: 0px;
      }

      .cls-2 {
        fill-rule: evenodd;
      }
    </style>
  </defs>
  <g id="Calque_1-2" data-name="Calque 1">
    <g id="Page-1">
      <g id="Dribbble-Light-Preview">
        <g id="icons">
          <path id="calendar-_1196_" data-name="calendar-[#1196]" class="cls-2" d="M84.69,79.99c0,2.6-2.11,4.71-4.71,4.71H14.12c-2.6,0-4.71-2.11-4.71-4.71v-47.05c0-2.6,2.11-4.71,4.71-4.71h65.87c2.6,0,4.71,2.11,4.71,4.71v47.05ZM84.69,9.41v-4.71c0-2.6-2.11-4.71-4.71-4.71s-4.71,2.11-4.71,4.71v4.71h-23.53v-4.71c0-2.6-2.11-4.71-4.71-4.71s-4.71,2.11-4.71,4.71v4.71h-23.53v-4.71c0-2.6-2.11-4.71-4.71-4.71s-4.71,2.11-4.71,4.71v4.71C4.21,9.41,0,13.62,0,18.82v65.87c0,5.19,4.21,9.41,9.41,9.41h75.28c5.2,0,9.41-4.22,9.41-9.41V18.82c0-5.2-4.21-9.41-9.41-9.41h0Z"/>
        </g>
      </g>
    </g>
    <path class="cls-1" d="M43.15,78.84l-.99-7.33c-1.01-.31-2.14-.8-3.37-1.49-1.23-.68-2.27-1.42-3.11-2.21l-6.74,3.04-3.9-6.94,5.95-4.43c-.09-.57-.17-1.17-.23-1.78-.07-.62-.1-1.21-.1-1.78,0-.53.03-1.1.1-1.72s.14-1.28.23-1.98l-5.95-4.49,3.9-6.74,6.67,2.91c.97-.79,2.03-1.52,3.17-2.18s2.25-1.15,3.3-1.45l1.06-7.4h7.8l.99,7.4c1.19.44,2.29.95,3.3,1.52,1.01.57,2,1.28,2.97,2.11l7-2.91,3.83,6.74-6.21,4.62c.18.66.29,1.28.33,1.85.04.57.07,1.12.07,1.65,0,.48-.03,1.01-.1,1.59-.07.57-.17,1.23-.3,1.98l6.14,4.49-3.9,6.94-6.87-3.11c-1.01.88-2.04,1.64-3.07,2.28-1.04.64-2.1,1.11-3.2,1.42l-.99,7.4h-7.8ZM46.85,61.47c1.59,0,2.92-.54,4-1.62,1.08-1.08,1.62-2.41,1.62-4s-.54-2.92-1.62-4c-1.08-1.08-2.41-1.62-4-1.62s-2.86.54-3.96,1.62c-1.1,1.08-1.65,2.41-1.65,4s.55,2.92,1.65,4c1.1,1.08,2.42,1.62,3.96,1.62Z"/>
  </g>
</svg>