<?xml version="1.0" encoding="UTF-8"?>
<svg id="Calque_2" data-name="Calque 2" xmlns="http://www.w3.org/2000/svg" viewBox="0 0 89.05 84.1">
  <defs>
    <style>
      .cls-1 {
        fill: rgba(0, 0, 0, 0.9);
        stroke-width: 0px;
      }
    </style>
  </defs>
  <g id="Calque_1-2" data-name="Calque 1">
    <path class="cls-1" d="M68.27,84.1H20.78c-6.13,0-9.5,0-12.67-1.62-2.81-1.43-5.05-3.67-6.49-6.49-1.62-3.18-1.62-6.55-1.62-12.68V20.78c0-6.13,0-9.5,1.62-12.67,1.43-2.81,3.68-5.05,6.49-6.49,3.17-1.62,6.55-1.62,12.67-1.62h47.49c6.13,0,9.5,0,12.68,1.62,2.81,1.43,5.05,3.68,6.49,6.49,1.62,3.17,1.62,6.55,1.62,12.67v42.55c0,6.13,0,9.5-1.62,12.68-1.43,2.81-3.68,5.05-6.49,6.49-3.17,1.62-6.55,1.62-12.67,1.62ZM34.63,74.21h33.64c4.29,0,7.12,0,8.18-.54.94-.48,1.68-1.22,2.16-2.16.54-1.06.54-3.89.54-8.18v-3.96h-44.53v14.84ZM9.89,59.37v3.96c0,4.29,0,7.12.54,8.18.48.94,1.22,1.68,2.16,2.16,1.06.54,3.89.54,8.18.54h3.96v-14.84h-14.84ZM34.63,49.47h44.53v-14.84h-44.53v14.84ZM9.89,49.47h14.84v-14.84h-14.84v14.84ZM34.63,24.74h44.53v-3.96c0-4.29,0-7.12-.54-8.18-.48-.94-1.22-1.68-2.16-2.16-1.06-.54-3.89-.54-8.18-.54h-33.64v14.84ZM9.89,24.74h14.84v-14.84h-3.96c-4.29,0-7.12,0-8.18.54-.94.48-1.68,1.23-2.16,2.16-.54,1.06-.54,3.89-.54,8.18v3.96Z"/>
  </g>
</svg>