<?xml version="1.0" encoding="UTF-8"?>
<svg id="Calque_2" data-name="Calque 2" xmlns="http://www.w3.org/2000/svg" viewBox="0 0 458.9 458.9">
  <defs>
    <style>
      .cls-1 {
        fill: #fff;
      }
    </style>
  </defs>
  <g id="Calque_1-2" data-name="Calque 1">
    <path class="cls-1" d="M419.41,176.83h-137.34s0-137.34,0-137.34C280.08.71,246.63-1.42,215.85.47c-21.55,0-39.03,17.47-39.03,39.02,0,0,0,137.34,0,137.34,0,0-137.34,0-137.34,0C.71,178.82-1.42,212.27.47,243.05c0,21.55,17.47,39.03,39.02,39.03,0,0,137.34,0,137.34,0,0,0,0,137.34,0,137.34,1.99,38.78,35.44,40.91,66.22,39.02,21.55,0,39.03-17.47,39.03-39.02,0,0,0-137.34,0-137.34,0,0,137.34,0,137.34,0,21.55,0,39.03-17.47,39.03-39.03,1.89-30.75-.24-64.25-39.03-66.22Z"/>
  </g>
</svg>