<?xml version="1.0" encoding="UTF-8"?>
<svg id="Calque_2" data-name="Calque 2" xmlns="http://www.w3.org/2000/svg" viewBox="0 0 730.47 729.93">
  <defs>
    <style>
      .cls-1 {
        fill: #fff;
        fill-rule: evenodd;
      }
    </style>
  </defs>
  <g id="Calque_1-2" data-name="Calque 1">
    <path class="cls-1" d="M661.59,29.29c-39.05-39.05-102.37-39.05-141.42,0L48.25,501.21c-13.96,13.96-23.48,31.74-27.35,51.1,0,0-19.57,97.85-19.57,97.85-9.33,46.65,31.8,87.78,78.45,78.45,38.18-11.24,121.68-13.6,148.94-46.92,0,0,471.92-471.92,471.92-471.92,60.74-66.38,19.07-131.6-39.05-180.47ZM567.31,76.43c33.07-31.64,64.11,20.07,86.19,39.05,13.02,13.02,13.02,34.12,0,47.14l-89.05,89.05-86.19-86.19,89.05-89.05ZM431.11,212.62L95.39,548.35c-4.65,4.65-7.83,10.58-9.12,17.03l-19.57,97.84,97.84-19.57c6.45-1.29,12.38-4.46,17.03-9.11l335.73-335.73-86.19-86.19Z"/>
  </g>
</svg>