<?xml version="1.0" encoding="UTF-8"?>
<svg id="Calque_2" data-name="Calque 2" xmlns="http://www.w3.org/2000/svg" viewBox="0 0 599.05 667.87">
  <defs>
    <style>
      .cls-1 {
        fill: #fff;
      }
    </style>
  </defs>
  <g id="Calque_1-2" data-name="Calque 1">
    <path class="cls-1" d="M566.19,134.54c-33.08,0-99.57,0-132.62,0C436.49,66.11,412.38-2.2,319.27.9c-89.11-6.27-163.51,18.48-153.08,133.64-33.26,0-100.09,0-133.33,0-43.79.74-43.83,65.93,0,66.67,0,0,33.33,0,33.33,0v333.33c0,73.52,59.81,133.33,133.33,133.33h200c73.52,0,133.33-59.81,133.33-133.33V201.2h33.33c43.82-.75,43.81-65.93,0-66.67ZM232.86,102.04c-.24-47.4,65.5-32.35,98.96-34.18,39.71,1.38,33.26,37.27,35.08,66.68h-134.04v-32.49ZM466.19,534.54c0,36.76-29.91,66.67-66.67,66.67h-200c-36.76,0-66.67-29.91-66.67-66.67V201.2h333.33v333.33Z"/>
  </g>
</svg>