<?xml version="1.0" encoding="UTF-8"?>
<svg id="Calque_2" data-name="Calque 2" xmlns="http://www.w3.org/2000/svg" viewBox="0 0 535.87 617.53">
  <defs>
    <style>
      .cls-1 {
        fill-rule: evenodd;
      }
    </style>
  </defs>
  <g id="Calque_1-2" data-name="Calque 1">
    <g>
      <path class="cls-1" d="M319.66,106.5c54.56,2.14,65.96,48.55,61.75,94.55C505.81,188.99,497.15-.15,371.33,0c-57.66-.2-104.04,48.96-100.61,106.5h48.94Z"/>
      <path class="cls-1" d="M534.13,441.57c-10.49-231.12,54.15-209.53-152.72-208.71v219.65c0,34.1-27.65,61.75-61.75,61.75h-112.68c69.94,173.21,333.93,114.7,327.15-72.68Z"/>
      <path class="cls-1" d="M341.08,452.5V168.25c0-15.7-12.72-28.42-28.42-28.42H28.42c-15.69,0-28.42,12.72-28.42,28.42v284.25c0,15.69,12.72,28.42,28.42,28.42h284.25c15.69,0,28.42-12.72,28.42-28.42ZM187.97,421.39h-38.98v-175.41h-68.22v-38.98h175.41v38.98h-68.22v175.41Z"/>
    </g>
  </g>
</svg>