<?xml version="1.0" encoding="UTF-8"?>
<svg xmlns="http://www.w3.org/2000/svg" viewBox="0 0 583 319.56">
  <path style="fill: #006865" d="M357.37,231.74h43.91c3.37,0,6.1-2.73,6.1-6.1V93.92c0-3.37-2.73-6.1-6.1-6.1h-71.75c-1.92,0-3.72.9-4.87,2.43l-33.15,44.1-33.15-44.1c-1.15-1.53-2.96-2.43-4.87-2.43h-71.75c-3.37,0-6.1,2.73-6.1,6.1v131.72c0,3.37,2.73,6.1,6.1,6.1h43.91c3.37,0,6.1-2.73,6.1-6.1v-73.13l54.8,76.67c1.14,1.6,2.99,2.55,4.96,2.55s3.82-.95,4.96-2.55l54.8-76.65v73.1c0,3.37,2.73,6.1,6.1,6.1Z"/>
  <path style="fill: #49b78b" d="M576.91,0H6.1C2.73,0,0,2.73,0,6.1v43.91c0,3.37,2.73,6.1,6.1,6.1h81.72v169.54c0,3.37,2.73,6.1,6.1,6.1h43.91c3.37,0,6.1-2.73,6.1-6.1V56.1h432.98c3.37,0,6.1-2.73,6.1-6.1V6.1c0-3.37-2.73-6.1-6.1-6.1Z"/>
  <path style="fill: #49b78b" d="M576.91,87.82h-131.73c-3.37,0-6.1,2.73-6.1,6.1v131.72c0,3.37,2.73,6.1,6.1,6.1h81.72v31.71H56.11V93.92c0-3.37-2.73-6.1-6.1-6.1H6.1c-3.37,0-6.1,2.73-6.1,6.1v219.54c0,3.37,2.73,6.1,6.1,6.1h570.81c3.37,0,6.1-2.73,6.1-6.1v-131.73c0-3.37-2.73-6.1-6.1-6.1h-81.72v-31.71h81.72c3.37,0,6.1-2.73,6.1-6.1v-43.91c0-3.37-2.73-6.1-6.1-6.1Z"/>
</svg>