<?xml version="1.0" encoding="UTF-8"?>
<svg id="mountain" xmlns="http://www.w3.org/2000/svg" viewBox="0 0 800 800">
  <path id="fill" style="fill: #ffab00" d="m529.6,185.84c-9.58-22.09-35.26-32.23-57.35-22.65-10.15,4.4-18.25,12.5-22.65,22.65l-112,221.2h0l-57.6-130.4c-9.63-19.88-33.55-28.19-53.44-18.56-8.1,3.92-14.64,10.46-18.56,18.56L40,640.64h720l-230.4-454.8Z"/>
  <path id="border" class="cls-1" d="m760,680.64H40c-13.64,0-26.34-6.95-33.69-18.44s-8.34-25.94-2.62-38.32l168-364c.1-.23.21-.45.32-.67,7.81-16.13,21-29.32,37.13-37.13,19.23-9.31,40.94-10.58,61.12-3.57,20.19,7.01,36.43,21.47,45.75,40.7.2.42.4.85.59,1.27l23.48,53.14,73.39-144.95c8.58-18.94,23.76-33.89,42.88-42.18,20.48-8.89,43.21-9.26,63.97-1.06,20.34,8.03,36.42,23.35,45.42,43.22l229.95,453.91c6.28,12.4,5.68,27.17-1.6,39.02-7.28,11.84-20.18,19.06-34.08,19.06Zm-657.48-80h592.38l-200.98-396.72c-.36-.71-.7-1.43-1.02-2.16-.39-.91-1.06-1.55-1.98-1.92-.92-.36-1.85-.35-2.75.04-.84.37-1.51,1.03-1.87,1.87-.32.73-.65,1.44-1.01,2.15l-112,221.2c-6.98,13.79-21.27,22.34-36.74,21.92-15.45-.41-29.29-9.68-35.54-23.82l-57.02-129.09-141.47,306.52Z"/>
</svg>